HIERARCHY
ROOT hip
{
	OFFSET 0.000000 0.000000 0.000000
	CHANNELS 6 Xposition Yposition Zposition Xrotation Zrotation Yrotation 
	JOINT abdomen
	{
		OFFSET 0.000000 3.422050 0.000000
		CHANNELS 3 Xrotation Zrotation Yrotation 
		JOINT chest
		{
			OFFSET 0.000000 8.486693 -0.684411
			CHANNELS 3 Xrotation Zrotation Yrotation 
			JOINT neck
			{
				OFFSET 0.000000 10.266162 -0.273764
				CHANNELS 3 Xrotation Zrotation Yrotation 
				JOINT head
				{
					OFFSET 0.000000 3.148285 0.000000
					CHANNELS 3 Xrotation Zrotation Yrotation 
					End Site
					{
						OFFSET 0.000000 3.148289 0.000000
					}
				}
			}
			JOINT lCollar
			{
				OFFSET 3.422053 6.707223 -0.821293
				CHANNELS 3 Yrotation Zrotation Xrotation 
				JOINT lShldr
				{
					OFFSET 3.285171 0.000000 0.000000
					CHANNELS 3 Zrotation Yrotation Xrotation 
					JOINT lForeArm
					{
						OFFSET 10.129278 0.000000 0.000000
						CHANNELS 3 Yrotation Zrotation Xrotation 
						JOINT lHand
						{
							OFFSET 8.486692 0.000000 0.000000
							CHANNELS 3 Zrotation Yrotation Xrotation 
							End Site
							{
								OFFSET 4.106464 0.000000 0.000000
							}
						}
					}
				}
			}
			JOINT rCollar
			{
				OFFSET -3.558935 6.707223 -0.821293
				CHANNELS 3 Yrotation Zrotation Xrotation 
				JOINT rShldr
				{
					OFFSET -3.148289 0.000000 0.000000
					CHANNELS 3 Zrotation Yrotation Xrotation 
					JOINT rForeArm
					{
						OFFSET -10.266159 0.000000 0.000000
						CHANNELS 3 Yrotation Zrotation Xrotation 
						JOINT rHand
						{
							OFFSET -8.349810 0.000000 0.000000
							CHANNELS 3 Zrotation Yrotation Xrotation 
							End Site
							{
								OFFSET -4.106464 0.000000 0.000000
							}
						}
					}
				}
			}
		}
	}
	JOINT lThigh
	{
		OFFSET 5.338403 -1.642589 1.368821
		CHANNELS 3 Xrotation Zrotation Yrotation 
		JOINT lShin
		{
			OFFSET -2.053232 -20.121670 0.000000
			CHANNELS 3 Xrotation Zrotation Yrotation 
			JOINT lFoot
			{
				OFFSET 0.000000 -19.300380 -1.231939
				CHANNELS 3 Xrotation Yrotation Zrotation 
				End Site
				{
					OFFSET 0.000000 -2.463878 4.653993
				}
			}
		}
	}
	JOINT rThigh
	{
		OFFSET -5.338403 -1.642589 1.368821
		CHANNELS 3 Xrotation Zrotation Yrotation 
		JOINT rShin
		{
			OFFSET 2.053232 -20.121670 0.000000
			CHANNELS 3 Xrotation Zrotation Yrotation 
			JOINT rFoot
			{
				OFFSET 0.000000 -19.300380 -1.231939
				CHANNELS 3 Xrotation Yrotation Zrotation 
				End Site
				{
					OFFSET 0.000000 -2.463878 4.653993
				}
			}
		}
	}
}
MOTION
Frames: 19
Frame Time: 0.033264
-7.223994 7.937199 -1.829268 -90.003609 0.001285 120.000854 -1.369070 12.974183 -2.920824 -1.813794 14.373076 19.391518 14.345385 -13.905856 -20.254677 -8.039529 21.653944 30.211494 30.380899 -19.670010 9.084363 -28.679636 -51.082760 -133.788116 -111.217102 -52.696350 -30.148254 -15.002956 -8.001153 5.000184 30.416189 -2.313269 2.979727 -1.202267 23.942097 6.103211 93.240372 -33.809151 -30.993673 4.799662 0.000000 0.000000 -12.558475 -3.613822 -1.293623 -2.449216 -5.765583 1.312416 106.548248 -10.168202 60.879074 -18.969011 -53.402576 -52.081715 112.485626 33.193581 48.815212 70.082191 -6.191080 11.647465 
-7.223994 7.937199 -1.829268 -90.003609 0.001287 120.000862 -1.369070 12.974183 -2.920824 -1.813794 14.373076 19.391518 13.415425 -15.692283 -20.388031 -8.241014 20.759918 29.663054 30.380899 -19.670008 9.084363 -28.679636 -51.082760 -133.788116 -111.217102 -52.696350 -30.148254 -15.002956 -8.001153 5.000184 30.416189 -2.313269 2.979727 -0.216914 22.658388 6.663242 94.426003 -33.405201 -30.485590 3.692806 0.000000 0.000000 -12.558475 -3.613822 -1.293623 -2.449216 -5.765582 1.312416 106.548248 -10.168203 60.879066 -18.969013 -53.402573 -52.081707 112.485626 33.193581 48.815212 70.082191 -6.191080 11.647465 
-7.223994 7.937199 -1.829268 -90.003609 0.001287 120.000862 -1.369070 12.974183 -2.920824 -1.813794 14.373076 19.391518 12.478163 -17.486290 -20.492521 -8.432380 19.863420 29.120682 30.380899 -19.670008 9.084363 -28.679636 -51.082760 -133.788116 -111.217102 -52.696350 -30.148254 -15.002956 -8.001153 5.000184 30.416189 -2.313269 2.979727 0.753291 21.356195 7.198376 95.607056 -32.990726 -29.987717 2.580653 0.000000 0.000000 -12.558475 -3.613822 -1.293623 -2.449216 -5.765582 1.312416 106.548248 -10.168203 60.879066 -18.969013 -53.402573 -52.081707 112.485626 33.193581 48.815212 70.082191 -6.191080 11.647465 
-7.223994 7.937199 -1.829268 -90.003609 0.001287 120.000862 -1.369070 12.974183 -2.920824 -1.813794 14.373076 19.391518 11.532127 -19.286293 -20.567152 -8.613825 18.964684 28.584112 30.380899 -19.670008 9.084363 -28.679636 -51.082760 -133.788116 -111.217102 -52.696350 -30.148254 -15.002956 -8.001153 5.000184 30.416189 -2.313269 2.979727 1.709033 20.036297 7.708972 96.783325 -32.565937 -29.500349 1.463378 0.000000 0.000000 -12.558475 -3.613822 -1.293623 -2.449216 -5.765582 1.312416 106.548248 -10.168203 60.879066 -18.969013 -53.402573 -52.081707 112.485626 33.193581 48.815212 70.082191 -6.191080 11.647465 
-7.223994 7.937199 -1.829268 -90.003609 0.001287 120.000862 -1.369070 12.974183 -2.920824 -1.813794 14.373076 19.391518 10.575762 -21.090677 -20.610836 -8.785538 18.063957 28.053102 30.380898 -19.670008 9.084362 -28.679636 -51.082760 -133.788116 -111.217102 -52.696350 -30.148254 -15.002956 -8.001153 5.000184 30.416189 -2.313269 2.979727 2.650997 18.699474 8.195377 97.954544 -32.131031 -29.023735 0.341158 0.000000 0.000000 -12.558475 -3.613822 -1.293623 -2.449216 -5.765582 1.312416 106.548248 -10.168203 60.879066 -18.969013 -53.402573 -52.081707 112.485626 33.193581 48.815212 70.082191 -6.191080 11.647465 
-7.223994 7.937199 -1.829268 -90.003609 0.001287 120.000862 -1.369070 12.974183 -2.920824 -1.813793 14.373075 19.391516 9.607402 -22.897825 -20.622393 -8.947707 17.161480 27.527403 30.380899 -19.670008 9.084363 -28.679636 -51.082760 -133.788116 -111.217102 -52.696350 -30.148254 -15.002956 -8.001153 5.000184 30.416189 -2.313269 2.979727 3.579876 17.346548 8.657929 99.120560 -31.686245 -28.558111 -0.785823 0.000000 0.000000 -12.558475 -3.613822 -1.293623 -2.449216 -5.765582 1.312416 106.548248 -10.168203 60.879066 -18.969013 -53.402573 -52.081707 112.485626 33.193581 48.815212 70.082191 -6.191080 11.647465 
-7.223994 7.937199 -1.829268 -90.003609 0.001287 120.000862 -1.369070 12.974183 -2.920824 -1.813794 14.373076 19.391518 8.625235 -24.706045 -20.600464 -9.100500 16.257477 27.006754 30.380899 -19.670008 9.084363 -28.679636 -51.082760 -133.788116 -111.217102 -52.696350 -30.148254 -15.002956 -8.001153 5.000184 30.416189 -2.313269 2.979727 4.496365 15.978334 9.096951 100.281105 -31.231775 -28.103672 -1.917376 0.000000 0.000000 -12.558475 -3.613822 -1.293623 -2.449216 -5.765582 1.312416 106.548248 -10.168203 60.879066 -18.969013 -53.402573 -52.081707 112.485626 33.193581 48.815212 70.082191 -6.191080 11.647465 
-7.223994 7.937199 -1.829268 -90.003609 0.001287 120.000862 -1.369070 12.974183 -2.920824 -1.813794 14.373076 19.391518 7.627327 -26.513653 -20.543573 -9.244087 15.352189 26.490932 30.380899 -19.670008 9.084363 -28.679636 -51.082760 -133.788116 -111.217102 -52.696350 -30.148254 -15.002956 -8.001153 5.000184 30.416189 -2.313269 2.979727 5.401161 14.595677 9.512754 101.436066 -30.767906 -27.660652 -3.053306 0.000000 0.000000 -12.558475 -3.613822 -1.293623 -2.449216 -5.765582 1.312416 106.548248 -10.168203 60.879066 -18.969013 -53.402573 -52.081707 112.485626 33.193581 48.815212 70.082191 -6.191080 11.647465 
-7.223994 7.937199 -1.829268 -90.003609 0.001287 120.000862 -1.369070 12.974183 -2.920824 -1.813794 14.373076 19.391518 6.611579 -28.318920 -20.450073 -9.378627 14.445844 25.979696 30.380899 -19.670008 9.084363 -28.679636 -51.082760 -133.788116 -111.217102 -52.696350 -30.148254 -15.002956 -8.001153 5.000184 30.416189 -2.313269 2.979727 6.294962 13.199433 9.905633 102.585220 -30.294847 -27.229197 -4.193416 0.000000 0.000000 -12.558475 -3.613822 -1.293623 -2.449216 -5.765582 1.312416 106.548248 -10.168203 60.879066 -18.969013 -53.402573 -52.081707 112.485626 33.193581 48.815212 70.082191 -6.191080 11.647465 
-7.223994 7.937199 -1.829268 -90.003609 0.001287 120.000862 -1.369070 12.974183 -2.920824 -1.813794 14.373076 19.391518 5.575716 -30.120096 -20.318125 -9.504278 13.538675 25.472834 30.380898 -19.670008 9.084362 -28.679636 -51.082760 -133.788116 -111.217102 -52.696350 -30.148254 -15.002956 -8.001153 5.000184 30.416189 -2.313269 2.979727 7.178472 11.790484 10.275867 103.728439 -29.812872 -26.809484 -5.337500 0.000000 0.000000 -12.558475 -3.613822 -1.293623 -2.449216 -5.765582 1.312416 106.548248 -10.168203 60.879066 -18.969013 -53.402573 -52.081707 112.485626 33.193581 48.815212 70.082191 -6.191080 11.647465 
-7.223994 7.937199 -1.829268 -90.003609 0.001287 120.000862 -1.369070 12.974183 -2.920824 -1.813793 14.373075 19.391516 4.517278 -31.915419 -20.145700 -9.621183 12.630910 24.970116 30.380899 -19.670008 9.084363 -28.679636 -51.082760 -133.788116 -111.217102 -52.696350 -30.148254 -15.002956 -8.001153 5.000184 30.416189 -2.313269 2.979727 8.052386 10.369713 10.623712 104.865601 -29.322252 -26.401663 -6.485350 0.000000 0.000000 -12.558475 -3.613822 -1.293623 -2.449216 -5.765582 1.312416 106.548248 -10.168203 60.879066 -18.969013 -53.402573 -52.081707 112.485626 33.193581 48.815212 70.082191 -6.191080 11.647465 
-7.223994 7.937199 -1.829268 -90.003609 0.001287 120.000862 -1.369070 12.974183 -2.920824 -1.813794 14.373076 19.391518 3.433575 -33.703083 -19.930532 -9.729481 11.722774 24.471331 30.380899 -19.670008 9.084363 -28.679636 -51.082760 -133.788116 -111.217102 -52.696350 -30.148254 -15.002956 -8.001153 5.000184 30.416189 -2.313269 2.979727 8.917411 8.938028 10.949410 105.996597 -28.823256 -26.005848 -7.636754 0.000000 0.000000 -12.558475 -3.613822 -1.293623 -2.449216 -5.765582 1.312416 106.548248 -10.168203 60.879066 -18.969013 -53.402573 -52.081707 112.485626 33.193581 48.815212 70.082191 -6.191080 11.647465 
-7.223994 7.937199 -1.829268 -90.003609 0.001287 120.000862 -1.369070 12.974183 -2.920824 -1.813794 14.373076 19.391518 2.321694 -35.481300 -19.670134 -9.829310 10.814488 23.976267 30.380899 -19.670008 9.084363 -28.679636 -51.082760 -133.788116 -111.217102 -52.696350 -30.148254 -15.002956 -8.001153 5.000184 30.416189 -2.313269 2.979727 9.774242 7.496344 11.253181 107.121284 -28.316164 -25.622158 -8.791493 0.000000 0.000000 -12.558475 -3.613822 -1.293623 -2.449216 -5.765582 1.312416 106.548248 -10.168203 60.879066 -18.969013 -53.402573 -52.081707 112.485626 33.193581 48.815212 70.082191 -6.191080 11.647465 
-7.223994 7.937199 -1.829268 -90.003609 0.001287 120.000862 -1.369070 12.974183 -2.920824 -1.813794 14.373076 19.391518 1.178435 -37.248203 -19.361694 -9.920796 9.906280 23.484722 30.380899 -19.670008 9.084363 -28.679636 -51.082760 -133.788116 -111.217102 -52.696350 -30.148254 -15.002956 -8.001153 5.000184 30.416189 -2.313269 2.979727 10.623585 6.045588 11.535220 108.239624 -27.801273 -25.250683 -9.949351 0.000000 0.000000 -12.558475 -3.613822 -1.293623 -2.449216 -5.765582 1.312416 106.548248 -10.168205 60.879066 -18.969013 -53.402573 -52.081707 112.485626 33.193581 48.815212 70.082191 -6.191080 11.647465 
-7.223994 7.937199 -1.829268 -90.003609 0.001287 120.000862 -1.369070 12.974183 -2.920824 -1.813794 14.373076 19.391518 0.000304 -39.001923 -19.002131 -10.004056 8.998360 22.996489 30.380898 -19.670008 9.084362 -28.679636 -51.082760 -133.788116 -111.217102 -52.696350 -30.148254 -15.002956 -8.001153 5.000184 30.416189 -2.313269 2.979727 11.466145 4.586695 11.795707 109.351501 -27.278873 -24.891512 -11.110099 0.000000 0.000000 -12.558475 -3.613822 -1.293623 -2.449216 -5.765582 1.312416 106.548248 -10.168205 60.879066 -18.969013 -53.402573 -52.081707 112.485626 33.193581 48.815212 70.082191 -6.191080 11.647465 
-7.223994 7.937199 -1.829268 -90.003609 0.001287 120.000862 -1.369070 12.974183 -2.920824 -1.813793 14.373075 19.391516 0.510860 -37.936024 -19.191950 -9.901912 9.387509 23.442381 30.380899 -19.670008 9.084363 -28.679636 -51.082760 -133.788116 -111.217102 -52.696350 -30.148254 -15.002956 -8.001153 5.000184 30.416189 -2.313269 2.979727 12.302624 3.120610 12.034786 110.456894 -26.749275 -24.544703 -12.273509 0.000000 0.000000 -12.558475 -3.613822 -1.293623 -2.449216 -5.765582 1.312416 106.548248 -10.168205 60.879066 -18.969013 -53.402573 -52.081707 112.485626 33.193581 48.815212 70.082191 -6.191080 11.647465 
-7.223994 7.937199 -1.829268 -90.003609 0.001287 120.000862 -1.369070 12.974183 -2.920824 -1.813794 14.373076 19.391518 1.011630 -36.864868 -19.367844 -9.796473 9.776231 23.889906 30.380899 -19.670008 9.084363 -28.679636 -51.082760 -133.788116 -111.217102 -52.696350 -30.148254 -15.002956 -8.001153 5.000184 30.416189 -2.313269 2.979727 13.133721 1.648291 12.252583 111.555717 -26.212772 -24.210297 -13.439350 0.000000 0.000000 -12.558475 -3.613822 -1.293623 -2.449216 -5.765582 1.312416 106.548248 -10.168205 60.879066 -18.969013 -53.402573 -52.081707 112.485626 33.193581 48.815212 70.082191 -6.191080 11.647465 
-7.223994 7.937199 -1.829268 -90.003609 0.001287 120.000862 -1.369070 12.974183 -2.920824 -1.813793 14.373075 19.391516 1.503224 -35.788723 -19.530327 -9.687732 10.164481 24.339111 30.380899 -19.670008 9.084363 -28.679636 -51.082760 -133.788116 -111.217102 -52.696350 -30.148254 -15.002956 -8.001153 5.000184 30.416189 -2.313269 2.979727 13.960158 0.170691 12.449207 112.647964 -25.669689 -23.888342 -14.607386 0.000000 0.000000 -12.558475 -3.613822 -1.293623 -2.449216 -5.765582 1.312416 106.548248 -10.168202 60.879074 -18.969013 -53.402573 -52.081707 112.485626 33.193581 48.815212 70.082191 -6.191080 11.647465 
-7.223994 7.937199 -1.829268 -90.003609 0.001287 120.000862 -1.369070 12.974183 -2.920824 -1.813794 14.373076 19.391518 1.986214 -34.707901 -19.679914 -9.575665 10.552210 24.790003 30.380899 -19.670008 9.084363 -28.679636 -51.082760 -133.788116 -111.217102 -52.696350 -30.148254 -15.002956 -8.001153 5.000184 30.416189 -2.313269 2.979727 14.782630 -1.311224 12.624723 113.733597 -25.120335 -23.578856 -15.777387 0.000000 0.000000 -12.558475 -3.613822 -1.293623 -2.449216 -5.765582 1.312416 106.548248 -10.168202 60.879074 -18.969015 -53.402569 -52.081699 112.485626 33.193581 48.815212 70.082191 -6.191080 11.647465 
